<?xml version="1.0" encoding="UTF-8" standalone="no"?> <svg xmlns:dc="http://purl.org/dc/elements/1.1/" xmlns:cc="http://creativecommons.org/ns#" xmlns:rdf="http://www.w3.org/1999/02/22-rdf-syntax-ns#" xmlns:svg="http://www.w3.org/2000/svg" xmlns="http://www.w3.org/2000/svg" viewBox="0 0 718.10669 91.533333" height="91.533333" width="718.10669" xml:space="preserve" id="svg2" version="1.1"><metadata id="metadata8"></metadata><defs id="defs6"></defs><g transform="matrix(1.3333333,0,0,-1.3333333,0,91.533333)" id="g10"><g transform="scale(0.1)" id="g12"><path id="path14" style="fill:#231f20;fill-opacity:1;fill-rule:nonzero;stroke:none" d="m 1030.97,435.301 c -38.243,0 -69.243,-31 -69.243,-69.246 0,-38.25 31,-69.254 69.243,-69.254 38.25,0 69.25,31.004 69.25,69.254 0,38.246 -31,69.246 -69.25,69.246 z m 2773.1,-162.867 c -38.24,0 -69.25,-30.996 -69.25,-69.246 0,-38.243 31.01,-69.25 69.25,-69.25 38.24,0 69.25,31.007 69.25,69.25 0,38.25 -31.01,69.246 -69.25,69.246 z m 244.06,-162.911 c -8.42,19.805 -18.59,43.829 -30.53,72.071 -11.96,28.215 -25.12,59.16 -39.5,92.824 -14.39,33.652 -29.04,67.859 -43.98,102.609 -14.93,34.739 -29.59,69.075 -43.98,103.004 -14.37,33.926 -27.41,64.867 -39.07,92.836 -11.69,27.957 -21.73,51.981 -30.13,72.067 -8.42,20.078 -14.26,33.921 -17.5,41.535 L 3540.41,68.4023 h 87.95 c 0,0 174.07,426.6137 175.08,431.5857 0.97,-4.906 174.24,-431.5857 174.24,-431.5857 h 87.96 c -3.26,7.586 -9.1,21.2969 -17.51,41.1207 z m 1316.53,516.68 -31.76,-72.476 c -22.27,8.144 -44.4,14.664 -66.37,19.546 -21.98,4.883 -43.05,7.336 -63.11,7.336 -34.19,0 -61.49,-7.062 -81.85,-21.175 -20.35,-14.129 -30.54,-32.043 -30.54,-53.746 0,-18.465 7.34,-33.262 22,-44.379 14.65,-11.133 32.85,-21.168 54.56,-30.133 21.7,-8.957 45.32,-17.914 70.85,-26.871 25.51,-8.957 49.12,-20.504 70.83,-34.61 21.71,-14.121 39.92,-31.894 54.56,-53.336 14.66,-21.453 22,-49.004 22,-82.656 0,-26.062 -4.76,-49.539 -14.25,-70.43 -9.51,-20.906 -23.62,-38.972 -42.35,-54.16 -18.72,-15.2028 -42.07,-26.863 -70.03,-35.0075 -27.96,-8.1446 -60.67,-12.2188 -98.12,-12.2188 -23.9,0 -45.49,1.6328 -64.74,4.8828 -19.28,3.2618 -36.65,7.461 -52.12,12.6172 -15.46,5.1563 -29.05,10.7227 -40.73,16.6992 -11.67,5.9691 -21.56,11.3981 -29.7,16.2891 l 39.08,77.363 c 21.71,-12.5 45.86,-22.539 72.47,-30.136 26.59,-7.606 50.75,-11.407 72.48,-11.407 10.85,0 24.29,1.36 40.3,4.075 16.02,2.714 31.35,7.46 46.01,14.257 14.67,6.778 27.28,15.879 37.87,27.286 10.58,11.386 15.88,25.769 15.88,43.152 0,15.734 -4.22,29.18 -12.62,40.312 -8.43,11.114 -19.55,20.891 -33.4,29.309 -13.84,8.418 -29.58,16.004 -47.21,22.801 -17.66,6.785 -35.72,13.843 -54.16,21.176 -18.47,7.328 -36.52,15.058 -54.15,23.203 -17.65,8.144 -33.39,18.043 -47.23,29.726 -13.85,11.668 -24.98,25.242 -33.4,40.715 -8.42,15.469 -12.61,34.063 -12.61,55.781 0,20.078 4.07,39.903 12.21,59.446 8.14,19.543 20.36,36.91 36.65,52.117 16.28,15.183 36.49,27.402 60.66,36.64 24.15,9.227 52.24,13.848 84.27,13.848 19.55,0 38.68,-1.633 57.42,-4.894 18.73,-3.25 35.69,-6.918 50.89,-10.985 15.2,-4.074 28.1,-8.019 38.68,-11.812 10.6,-3.797 17.51,-6.512 20.78,-8.145 z m -1155.52,58.633 c 4.88,-7.606 15.07,-22.129 30.54,-43.57 15.47,-21.446 33.38,-46.282 53.74,-74.504 20.36,-28.239 41.94,-58.231 64.75,-89.981 22.78,-31.758 44.23,-61.621 64.32,-89.578 20.09,-27.961 37.6,-52.258 52.53,-72.875 14.92,-20.644 24.82,-34.207 29.72,-40.723 1.63,2.715 6.78,10.04 15.46,21.993 8.68,11.925 19.41,26.867 32.18,44.785 12.74,17.91 27.28,38.133 43.57,60.66 16.27,22.523 32.97,45.605 50.07,69.219 17.1,23.617 33.93,47.093 50.48,70.437 16.56,23.336 31.9,44.645 46.02,63.922 14.11,19.27 26.18,36.106 36.23,50.488 10.05,14.379 17.24,24.297 21.58,29.727 V 68.4023 h -94.45 V 399.008 c 0,4.344 0.41,8.965 1.22,13.847 0.81,4.887 1.22,8.411 1.22,10.579 -4.89,-6.508 -12.63,-17.5 -23.21,-32.973 -10.58,-15.469 -22.8,-33.125 -36.66,-52.934 -13.83,-19.82 -28.36,-40.718 -43.55,-62.699 -15.2,-21.984 -29.6,-42.754 -43.15,-62.297 -13.59,-19.539 -25.53,-36.785 -35.83,-51.707 -10.33,-14.933 -17.39,-25.383 -21.18,-31.347 -3.81,4.882 -11.28,15.058 -22.39,30.535 -11.13,15.468 -24.18,33.508 -39.09,54.152 -14.94,20.625 -30.68,42.606 -47.24,65.957 -16.56,23.328 -31.89,45.059 -45.99,65.145 -14.13,20.078 -26.34,37.32 -36.65,51.707 -10.33,14.379 -16.28,23.211 -17.92,26.461 0,-2.168 0.41,-5.692 1.22,-10.579 0.81,-4.882 1.23,-9.503 1.23,-13.847 V 68.4023 h -88.77 z m -899.79,-26.059 h 88.75 V 68.4023 h -88.75 z M 2800.41,68.4023 V 658.777 h 89.57 V 153.09 h 275.24 V 68.4023 Z m -476.38,0 V 658.777 h 89.58 V 153.09 h 275.24 V 68.4023 Z M 2017.05,658.777 h 88.75 V 68.4023 h -88.75 z M 1872.1,656.336 C 1852.55,604.75 1831.79,550.602 1809.8,493.879 1787.82,437.145 1766.1,381.359 1744.66,326.535 1723.21,271.703 1702.99,219.582 1684,170.188 1664.98,120.785 1648.97,78.1758 1635.95,42.3359 L 1504.03,372.137 c -1.63,4.34 -2.99,7.597 -4.07,9.773 -1.1,2.164 -2.17,5.426 -3.26,9.774 0,-2.18 -0.28,-4.215 -0.81,-6.106 -0.56,-1.906 -1.09,-3.945 -1.63,-6.105 -0.55,-2.18 -1.09,-4.352 -1.63,-6.516 -18.46,-42.348 -36.64,-83.883 -54.56,-124.594 -7.61,-17.375 -15.47,-35.293 -23.62,-53.742 -8.14,-18.465 -16.01,-36.785 -23.61,-54.969 -7.61,-18.195 -15.07,-35.703 -22.39,-52.5192 -7.33,-16.8359 -13.99,-32.0312 -19.95,-45.6055 -39.09,102.6057 -78.46,204.9217 -118.08,306.9997 -39.63,102.051 -78.99,204.661 -118.07,307.809 h 100.15 c 13.03,-35.832 26.47,-71.945 40.32,-108.301 13.84,-36.383 26.87,-71.394 39.08,-105.051 12.21,-33.671 23.21,-64.875 32.98,-93.644 9.77,-28.781 17.37,-53.215 22.8,-73.293 l 6.52,-28.496 c 0.53,2.707 1.89,7.187 4.07,13.437 2.16,6.231 3.78,10.715 4.88,13.43 0.53,2.168 2.44,7.059 5.71,14.656 3.25,7.61 7.04,16.699 11.39,27.285 4.34,10.586 9.23,22.114 14.66,34.61 5.42,12.476 10.85,25.238 16.29,38.273 13.03,29.848 27.41,62.969 43.16,99.34 -9.25,25.512 -17.38,49.398 -24.43,71.664 -6.51,18.996 -12.62,37.731 -18.33,56.188 -5.69,18.445 -9.91,31.757 -12.61,39.902 h 85.5 c 23.33,-61.352 45.05,-118.074 65.15,-170.195 8.14,-22.266 16.41,-44.516 24.83,-66.774 8.4,-22.269 16.28,-42.89 23.61,-61.883 7.33,-19.011 13.71,-35.703 19.14,-50.089 5.41,-14.383 9.22,-24.832 11.4,-31.348 1.63,-4.883 2.85,-9.649 3.66,-14.246 0.82,-4.621 1.76,-9.367 2.86,-14.25 1.08,4.883 2.04,9.777 2.85,14.66 0.81,4.883 1.75,9.492 2.84,13.836 4.89,21.172 12.49,46.418 22.81,75.734 10.3,29.321 21.84,60.793 34.6,94.461 12.75,33.656 26.19,68.528 40.31,104.641 14.11,36.094 27.69,71.25 40.72,105.453 z M 575.711,153.09 c 31.48,0 60.664,4.609 87.539,13.836 26.875,9.23 50.211,22.668 70.035,40.312 19.809,17.637 35.281,39.356 46.414,65.149 11.117,25.781 16.696,55.496 16.696,89.164 0,35.836 -6.25,67.043 -18.731,93.648 -12.5,26.59 -28.785,48.715 -48.859,66.371 -20.094,17.625 -42.754,30.664 -67.996,39.086 -25.246,8.403 -50.899,12.617 -76.957,12.617 H 499.977 V 153.09 Z M 411.223,658.777 h 148.199 c 59.715,0 110.207,-8.957 151.469,-26.871 41.246,-17.914 74.777,-41.406 100.562,-70.437 25.781,-29.055 44.512,-61.625 56.192,-97.723 11.664,-36.109 17.503,-72.062 17.503,-107.894 0,-43.965 -7.875,-83.75 -23.613,-119.297 C 845.785,201 824.344,170.727 797.203,145.754 770.055,120.785 738.57,101.645 702.746,88.3516 666.91,75.043 628.91,68.4023 588.742,68.4023 H 411.223 Z M -0.00390625,0.00390625 V 83.8711 C 37.9844,86.0469 69.0742,99.0742 93.2383,122.961 c 24.1487,23.887 36.2307,61.074 36.2307,111.562 v 424.254 h 89.578 V 232.082 c 0,-36.375 -5.43,-68.691 -16.285,-96.914 C 191.898,106.957 176.707,82.9336 157.16,63.1094 137.613,43.3047 114.41,28.0977 87.5352,17.5117 60.668,6.91797 31.4766,1.09766 -0.00390625,0.00390625"></path></g></g></svg> 