<?xml version="1.0" encoding="UTF-8"?> <svg xmlns="http://www.w3.org/2000/svg" xml:space="preserve" viewBox="0 0 612 680.764"><g fill="#0C0D0D"><path d="M266.116 427.367c-3.818 1.998-7.836 3.6-12.089 4.636-5.985 1.458-12.052 2.59-18.166 3.342-31.105 3.827-62.738-3.193-86.61-24.275-39.51-34.892 0-101.085 0-101.085H24.564v12.828c4.971 0 9.37 2.539 12.882 5.887 15.946 15.202 17.532 39.347 25.376 58.71 10.735 26.498 26.104 51.392 47.327 70.773 15.568 14.217 34.006 25.107 54.002 31.799 14.274 4.777 29.27 7.484 44.315 7.979 6.144.202 12.161-.183 18.267-.687 19.809-1.633 39.511-5.398 58.252-12.099 19.637-7.022 38.017-17.376 53.889-30.899-4.408-.867-8.807-1.848-13.183-2.985-18.722-4.864-39.99-12.383-59.575-23.924zm36.046-394.979.513 14.111c23.604 0 23.09 27.965 23.09 27.965v229.365c0 3.87-.108 7.74-.333 11.603-.786 13.483-3.082 26.893-7 39.782 13.607 8.754 31.832 13.953 54.497 15.464l7.854.519c3.895.256 7.817.518 11.75.784 9.359-28.296 12.766-58.128 12.766-88.312V68.819c0-18.473 21.551-22.578 21.551-22.578V32.388H302.162z"></path><path d="M582.128 476.234c-18.134-58.896-73.018-83.501-129.455-91.44-19.481-2.741-39.115-4.303-58.75-5.647l-1.868-.127c-3.928-.266-7.846-.527-11.738-.783l-6.052-.4c-.602-.04-1.204-.079-1.806-.119-.024-.002-.049-.004-.073-.006-1.568-.105-3.115-.23-4.645-.37-.475-.043-.952-.098-1.428-.145-1.107-.11-2.209-.225-3.296-.353-.56-.066-1.12-.14-1.681-.212-1.032-.132-2.055-.271-3.069-.421-.568-.083-1.134-.169-1.702-.259-1.079-.171-2.145-.353-3.202-.544-.489-.088-.978-.17-1.466-.263-1.504-.286-2.988-.589-4.447-.915-.374-.083-.744-.179-1.117-.266-1.128-.262-2.245-.535-3.345-.822-.564-.147-1.126-.301-1.687-.455-.968-.267-1.922-.545-2.868-.831-.535-.161-1.071-.317-1.602-.486-1.335-.425-2.648-.869-3.936-1.333-.545-.196-1.081-.408-1.622-.613-.855-.324-1.701-.656-2.534-.997-.601-.246-1.201-.494-1.796-.752-1.027-.445-2.034-.906-3.027-1.379-.725-.345-1.44-.706-2.154-1.07-.725-.37-1.445-.745-2.151-1.131-.628-.343-1.253-.689-1.872-1.048-.76-.441-1.501-.896-2.237-1.356-.575-.359-1.155-.708-1.72-1.081l-3.652-2.349.051-.169c-4.112-3.073-7.917-6.584-11.315-10.599-16.691-19.721-21.701-57.36-.402-75.575 6.027-5.154 12.9-9.381 20.244-12.909v-48.885c-10.987 3.551-21.562 8.197-31.429 14.169-77.994 47.207-88.257 95.953-70.298 139.569 18.581 45.126 65.682 68.959 110.481 80.6 32.142 8.352 65.378 8.169 97.611 15.352 23.808 5.306 49.69 15.171 64.445 35.72 6.524 9.086 10.141 19.834 10.797 30.981 1.759 29.901-16.653 57.604-43.164 70.007-27.881 13.044-60.911 12.964-90.603 7.316-19.615-3.732-38.695-10.197-56.692-18.82-73.889-35.405-92.875-53.365-92.875-53.365v85.691s15.394-12.315 48.233 6.157c32.84 18.472 174.974 49.26 262.718-8.723 46.545-30.754 71.002-83.964 54.196-138.544zM412.355 241.201c6.044.089 12.082.416 18.088 1.054 57.983 6.157 101.085 50.799 101.085 50.799l14.88-72.863s-15.907 7.697-37.458 0c-11.349-4.053-50.595-15.787-96.595-19.097v40.107z"></path></g></svg> 