<?xml version="1.0" encoding="UTF-8"?> <svg xmlns="http://www.w3.org/2000/svg" xml:space="preserve" viewBox="0 0 652 652"><path d="M258.7 295.6c.9 0 1.6.7 1.6 1.6 0 .2-.1.4-.2.6l-19.2 47.7c-.2.6-.9 1-1.5 1-.7 0-1.3-.4-1.5-1L220 301.4l-17.7 44.1c-.2.6-.9 1-1.5 1s-1.3-.3-1.5-.9l-19.2-47.8c-.1-.2-.2-.3-.2-.6 0-.9.7-1.6 1.6-1.6.6 0 1.3.4 1.5 1l17.7 44.1 17.9-44.1c.2-.6.9-1 1.5-1s1.2.4 1.5 1c5.1 12.5 12.6 31.2 17.8 44.1l17.8-44.1c.3-.6.9-1 1.5-1m-188 0c-.9 0-1.6.7-1.6 1.6V341l-44.8-44.8c-.4-.4-.8-.6-1.3-.6-.9 0-1.6.7-1.6 1.6v47.7c0 .9.7 1.6 1.6 1.6.9 0 1.6-.7 1.6-1.6v-43.8l44.8 44.8c.3.3.7.6 1.3.6.9 0 1.6-.7 1.6-1.6v-47.7c0-.8-.7-1.6-1.6-1.6m79.5 3.2c.9 0 1.6-.7 1.6-1.6 0-.9-.7-1.6-1.6-1.6h-39.7c-.9 0-1.6.7-1.6 1.6v47.7c0 .9.7 1.6 1.6 1.6h39.7c.9 0 1.6-.7 1.6-1.6 0-.9-.7-1.6-1.6-1.6H112v-20.7h30.2c.9 0 1.6-.7 1.6-1.6 0-.9-.7-1.6-1.6-1.6H112v-20.7h38.2zm361.4 44.7c12.4 0 22.3-10 22.3-22.3 0-12.4-10-22.3-22.3-22.3-12.4 0-22.3 10-22.3 22.3s10 22.3 22.3 22.3m0-47.9c14.1 0 25.5 11.4 25.5 25.5s-11.4 25.5-25.5 25.5-25.5-11.4-25.5-25.5 11.4-25.5 25.5-25.5m109.2 48.2-27.4-26.1 27.4-19.2c.7-.5.9-1.5.4-2.2-.5-.7-1.5-.9-2.2-.4l-45.3 31.7v-30.3c0-.9-.7-1.6-1.6-1.6-.9 0-1.6.7-1.6 1.6v47.8c0 .9.7 1.6 1.6 1.6.9 0 1.5-.9 1.5-1.6v-13.5l17.1-12 27.9 26.5c.3.3.7.6 1.3.6.9 0 1.6-.7 1.6-1.6 0-.5-.3-1-.7-1.3m-191.2-.3c12.4 0 22.3-10 22.3-22.3 0-12.4-10-22.3-22.3-22.3-12.4 0-22.3 10-22.3 22.3s10 22.3 22.3 22.3m0-47.9c14.1 0 25.5 11.4 25.5 25.5s-11.4 25.5-25.5 25.5-25.5-11.4-25.5-25.5 11.4-25.5 25.5-25.5m-51.3 47.9H340v-46.2c0-.9-.7-1.6-1.6-1.6-.9 0-1.6.7-1.6 1.6v47.8c0 .9.7 1.6 1.6 1.6h39.8c.9 0 1.6-.7 1.6-1.6.1-.9-.7-1.6-1.5-1.6"></path></svg> 