<?xml version="1.0" encoding="UTF-8"?> <svg xmlns="http://www.w3.org/2000/svg" height="800" width="1200" viewBox="-68.145 -32.86975 590.59 197.2185"><path d="M371.9 0h12.6v11c21.6.6 44.2.1 66.2.3v11.6c-21.5.6-44.1.1-66 .3-.5 12.6-.3 26-.3 39.2 0 13.3-1.1 26.4 2.1 37.1 3.1 10.4 10.8 16.3 20.8 18.7 12.9 3.1 30.9.5 39.4-6.8 2.8 2.8 5.3 5.9 7.6 9.2-10.8 8.3-26.7 12.5-44.7 10.3-16.2-2-27.6-9.2-33.6-22.3-6.2-13.6-4.5-32.6-4.5-51.5v-56c.1-.7.1-1.1.4-1.1M104.6 128.8H91.7V80.2c0-20.6 1.7-41.7-9.2-51.5-11.4-10.2-35.1-9.9-49.4-2.9C22 31.2 14 40.9 12.9 56.8c-1.6 23.6 1.2 48 0 72H0V14.2h12.9v13.1C21.5 17.4 34 9.8 51.8 8.7c29.4-1.9 47.7 9.9 51.8 34.7 2.1 12.8 1 27.4 1 42.3zm134.6-53.4H135.6c1.7 22.8 13.9 39.3 35.7 43.1 26.1 4.6 44.4-7.6 52.3-25.2h13.1c-7.8 20.3-22.1 33.3-44.9 37.1-38.5 6.4-65.6-18-69.4-52-1.4-12.9.5-25.5 4.7-35.7 7.5-18.3 24.8-32.4 48.9-33.9 21.4-1.4 37.3 6.9 47.3 17.6 10.8 11.4 16.6 26.8 15.9 49m-27.6-43.3c-7.7-7.2-19.6-12.5-34.2-11.6-25.7 1.6-38.5 18.3-41.8 43.1h90.1c-1.2-13.5-6-23.9-14.1-31.5m32.8-20.5c4.9-.6 10.9-.1 16.3-.3 11.9 13.6 23.9 27.9 35.7 42.3.9 1.1 4.4 6 5 6 .8 0 4.3-4.9 5.3-6 11.4-14 23.4-28.6 34.9-42.3h15c.4 1.1-1.3 2.2-2.4 3.4-14.9 17.5-30 36.5-44.9 54.1 16.4 20 34.2 40.1 49.9 59.9-4.6-1.1-10.9 1.4-15.8 0-1.4-.4-4.2-4.2-5.8-6-12.1-14.4-25.2-30.2-36.8-44.2-14.7 16.3-28.2 33.8-42.8 50.2h-15.2c-.3-1 1.3-2.5 2.4-3.7 15.6-18.2 31.9-37.5 47.6-55.7-15.9-19.5-32.2-38.6-48.4-57.7"></path></svg> 