<?xml version="1.0" encoding="UTF-8"?> <svg xmlns="http://www.w3.org/2000/svg" version="1.0" viewBox="0 0 650.47656 83.059563"><g fill="#00aedb" font-weight="400"><path d="M69.153039 576.47021v-36.38042H87.22739c5.240266.00245 9.676781-.2341 13.30956-.70965 3.63268-.47548 6.6499-1.20444 9.05166-2.18688 4.54507-1.8996 7.85194-4.61751 9.92061-8.15373 2.06854-3.53614 3.08715-7.61541 3.05584-12.23785-.03386-4.46542-.95109-8.39504-2.7517-11.78888-1.80074-3.39369-4.2821-5.87505-7.44408-7.44408-2.00108-.98233-4.6321-1.71129-7.89305-2.18688-3.26106-.47543-7.658956-.71198-13.193697-.70965h-29.31289v81.79802h7.183396zm0-42.98451v-32.20942h19.696408c5.368195-.06268 9.664711.0918 12.889563.46344 3.22475.3718 5.84128 1.33731 7.8496 2.89654 1.63648 1.2335 2.91095 2.8797 3.82342 4.93858.91234 2.05902 1.37579 4.42934 1.39033 7.11098-.00489 3.43969-.6904 6.37967-2.05654 8.81994-1.36625 2.44037-3.38417 4.2507-6.05374 5.43099-2.28832.96797-5.12691 1.639-8.515806 2.01309-3.388983.37418-7.154468.5528-11.296468.53586H69.153039zm149.723251 42.98451-25.83706-36.728c7.55507-.84961 13.29985-3.20546 17.23436-7.06754 3.93439-3.86199 5.91368-8.9985 5.93789-15.40954-.07007-4.96507-1.17558-9.16987-3.31653-12.61439-2.14108-3.44439-4.89761-5.8823-8.26959-7.31374-2.83624-1.17543-5.99829-1.9237-9.48614-2.24482-3.48795-.32095-7.31619-.46095-11.48475-.41999h-25.14188v81.79802h7.29926v-35.91697h19.58054l24.44672 35.91697h9.03718zm-53.06444-42.52106v-32.67287h19.00124c3.92958-.0482 7.33783.10628 10.22475.46344 2.88683.35732 5.31025 1.20697 7.27029 2.54895 2.08062 1.41455 3.62544 3.22005 4.63445 5.41652 1.0089 2.1966 1.51096 4.63933 1.5062 7.32822.00477 2.70831-.38144 5.0545-1.15862 7.03857-.77729 1.98417-1.97452 3.69312-3.59169 5.12686-1.86591 1.66796-4.39071 2.87967-7.57443 3.63514-3.18382.75555-6.95413 1.12727-11.31095 1.11517h-19.00124zm100.12792 42.52106v-81.79802h-7.29926v81.79802h7.29926zm118.98776 0v-81.79802h-10.89095c-6.33167 17.13179-11.12489 30.11396-14.37967 38.94653-3.25489 8.83267-5.6794 15.46393-7.27351 19.8938-1.59422 4.42993-3.06608 8.60665-4.4156 12.53018-1.45975-4.19816-3.0203-8.57228-4.68165-13.12235-1.66143-4.55003-4.16604-11.19845-7.51382-19.9453-3.34785-8.74675-8.28124-21.51436-14.80019-38.30286h-10.54338v81.79802h7.06754c.00284-18.5628-.00288-32.75078-.01717-42.56398-.01432-9.8131-.05437-16.95501-.12015-21.42574-.06581-4.4706-.17452-7.97361-.32613-10.50904 1.1965 3.664 2.63976 7.81927 4.32978 12.46581 1.68998 4.64666 4.32617 11.66842 7.9086 21.06528 3.58237 9.39695 8.81043 23.05283 15.68418 40.96767h5.6772c5.45901-14.42542 9.9118-26.22895 13.35837-35.41062 3.44644-9.1816 6.26859-16.7798 8.46645-22.79462 2.19771-6.01471 4.15305-11.4845 5.86601-16.40938-.11522 2.7321-.20677 6.25371-.27463 10.56482-.06802 4.31124-.11666 11.32585-.1459 21.04384-.0294 9.71807-.04371 24.05338-.04291 43.00596h7.06753zm102.42482 0-30.93495-81.79802h-7.64684l-31.86184 81.79802h8.11029l8.68959-23.86741h36.95973l8.57373 23.86741h8.11029zm-51.21066-30.23977c3.58166-9.48485 6.4081-16.98293 8.47932-22.49425 2.07117-5.51122 3.67892-9.82526 4.82326-12.94213 1.14427-3.11674 2.11693-5.82588 2.91799-8.12745.80026 2.37023 1.76148 5.09654 2.88365 8.17895 1.1221 3.08254 2.70124 7.36225 4.73744 12.83914 2.03611 5.47699 4.82536 12.99223 8.36776 22.54574h-32.20942zm145.46835 30.23977-25.83705-36.728c7.55507-.84961 13.29985-3.20546 17.23436-7.06754 3.93439-3.86199 5.91368-8.9985 5.93789-15.40954-.07007-4.96507-1.17558-9.16987-3.31653-12.61439-2.14108-3.44439-4.89761-5.8823-8.2696-7.31374-2.83624-1.17543-5.99828-1.9237-9.48614-2.24482-3.48794-.32095-7.31619-.46095-11.48474-.41999h-25.14188v81.79802h7.29925v-35.91697h19.58055l24.44672 35.91697h9.03717zm-53.06444-42.52106v-32.67287h19.00124c3.92959-.0482 7.33784.10628 10.22476.46344 2.88682.35732 5.31025 1.20697 7.27029 2.54895 2.08062 1.41455 3.62543 3.22005 4.63445 5.41652 1.0089 2.1966 1.51096 4.63933 1.50619 7.32822.00477 2.70831-.38143 5.0545-1.15861 7.03857-.77729 1.98417-1.97453 3.69312-3.5917 5.12686-1.8659 1.66796-4.39071 2.87967-7.57443 3.63514-3.18381.75555-6.95412 1.12727-11.31095 1.11517H528.5456zm157.2021 42.52106-33.71562-50.05204 30.12392-31.74598h-9.2689l-43.56382 46.69207v-46.69207h-7.29926v81.79802h7.29926V550.5173l17.72677-18.88538 30.00806 44.83829h8.68959z" font-family="Bitstream Vera Sans" font-size="463.4508667" style="line-height:125%" transform="translate(-61.969643 -493.41065)"></path><path d="M712.44623 502.47005c-.06467-2.57818-.96144-4.71686-2.69029-6.41603-1.7289-1.69914-3.90198-2.58027-6.51927-2.64337-2.67726.06206-4.88685.95153-6.62875 2.66839-1.74192 1.7169-2.64389 3.88895-2.70594 6.51614.06205 2.65224.97654 4.84305 2.74348 6.57245 1.76693 1.7294 4.01405 2.62512 6.74137 2.68716 2.62197-.05944 4.77316-.96037 6.45357-2.7028 1.68037-1.74243 2.54898-3.96974 2.60583-6.68194zm-1.3514.25026c-.05216 2.26955-.80502 4.14962-2.2586 5.64023-1.45361 1.49061-3.2951 2.26329-5.52448 2.31803-2.29562-.05735-4.19864-.84358-5.70905-2.3587-1.51043-1.51511-2.29353-3.41499-2.34931-5.69966.05057-2.30551.81907-4.20748 2.30551-5.70592 1.48644-1.49842 3.38736-2.27422 5.7028-2.32742 2.29716.04798 4.16576.8217 5.60581 2.32116 1.44002 1.49949 2.18246 3.43691 2.22732 5.81228zm-2.9781 5.1053-3.00311-4.35452c.84983-.20541 1.48382-.58289 1.90197-1.13243.41813-.54951.62668-1.23981.62565-2.07089.00207-.59592-.12097-1.13085-.36913-1.60479-.24819-.47392-.63401-.83993-1.15745-1.09802-.32588-.16213-.71899-.28205-1.17935-.35975-.46039-.07767-1.05997-.11625-1.79874-.11574h-3.72887v10.73614h2.07715v-4.07923h1.55161l2.65276 4.07923h2.42751zm-6.60685-5.90613v-3.00312h1.80187c.29821-.00155.5589.00784.78206.02816.22314.02034.42126.06101.59437.122.30916.11367.52918.28051.66006.50052.13085.22003.19446.48697.19082.80083.00155.30032-.04537.55684-.14077.76955-.09543.21273-.24871.38165-.45985.50677-.17363.09908-.38948.16998-.64755.21272-.25809.04277-.56779.06362-.92909.06257h-1.85192z" font-family="Akzidenz-Grotesk Next Med" font-size="25.0262928" style="text-align:start;line-height:125%;-inkscape-font-specification:Akzidenz-Grotesk Next Med" transform="translate(-61.969643 -493.41065)"></path></g></svg> 