<?xml version="1.0" encoding="UTF-8"?> <svg xmlns="http://www.w3.org/2000/svg" viewBox="0 0 26.722929 6.8281627"><path d="M25.420856 3.37703c-.25963 0-.49039-.0375-.69031-.10919-.19636-.0769-.34539-.15231-.44427-.22542l-.0328-.0281v-.47843l.14341.12325c.0994.082.24088.16075.42365.23245.18089.0684.37772.10263.58777.10263.23572 0 .42552-.0478.56728-.1434.14528-.0994.21886-.23245.21886-.39647 0-.16731-.0717-.28869-.21183-.36226-.13684-.0769-.33132-.15044-.58092-.21886l-.0281-.005c-.25119-.0717-.48696-.1659-.70399-.28025-.21886-.11294-.32805-.32289-.32805-.62877 0-.20339.0853-.39319.25963-.56729.17246-.17246.44427-.25963.81332-.25963.17621 0 .34539.0234.50581.0684.16214.0469.3107.11107.44427.19121l.0478.0281v.4513l-.14341-.0956c-.12325-.0853-.25634-.15043-.39647-.1912-.14199-.0422-.29196-.0684-.4513-.0684-.2151 0-.38428.0422-.50575.12325-.12325.0787-.18465.18792-.18465.32805 0 .15043.0651.2615.19824.32805.13497.0684.32992.13824.58092.20479l.0281.0141c.22214.06.45271.15231.69031.27322.24088.12325.36226.34679.36226.66978 0 .26993-.11107.49038-.32805.66298-.21886.17434-.50065.25963-.84069.25963zm-2.31696-.0478h-.31446L20.916706.89605v2.43318h-.38944V.17842h.32149l1.86589 2.42634V.17842h.38944zm-3.60192 0h-.41709l-.38944-.86801h-1.53779l-.38944.86801h-.41709l1.42167-3.16449h.31445zm-2.18714-1.23027h1.22343l-.61513-1.35325zm-1.99575 1.23027h-.38944V.86873l-.93634 1.22343h-.22541l-.94319-1.23027v2.46734h-.38944V.17842h.35523l1.09357 1.44215 1.08673-1.44215h.34867zm-5.03038 0h-.38944V.55432h-1.05936V.17847h2.51519v.37585h-1.06624zm-2.56303 0h-.38944V.17842h.38944zm-1.55831 0h-2.2418V.17842h2.17345v.37585h-1.78387v.89534h1.47631v.37585h-1.47631v1.12089h1.85222zm-3.31486 0h-.46475L1.42406 1.94178H.521872v1.38745h-.38958V.17842h1.407954c.29904 0 .54166.0801.72449.23901.18113.16074.2734.37257.2734.63566 0 .21886-.0632.40163-.18455.54677-.1196.14715-.28193.24791-.48527.30086zM.521858 1.56588h.997875c.140123 0 .280193-.0328.416903-.0956.13496-.0633.20503-.20011.20503-.41006 0-.21698-.0769-.35711-.22556-.41709-.14697-.0581-.27851-.089-.39642-.089H.521811zm2.610878 4.99621c-.15039 0-.27852-.053-.38274-.15699-.10081-.10076-.15039-.22729-.15039-.38288 0-.14856.0495-.27696.15039-.38288.10422-.10404.2324-.15746.38274-.15746.0529 0 .10596.009.15718.0188.0495.014.0957.0375.1367.0614l.0136.0141v.13684l-.0478-.0187c-.0412-.0328-.0854-.0511-.12986-.0614-.0412-.0141-.0854-.0187-.12986-.0187-.11959 0-.21529.0375-.28704.11622-.0735.0787-.10938.17621-.10938.29384 0 .1195.0361.21698.10938.29383.0769.0801.1726.12325.28704.12325.053 0 .10423-.009.15034-.0281.0495-.0141.0923-.0375.12986-.075l.0547-.0328v.15699l-.0136.005c-.0459.0375-.0974.0614-.15034.075-.0513.0141-.10764.0187-.17086.0187zm16.73145-.005h-.13684l.46489-1.05257h.13685zm4.38108-.005h-.33507V5.50637h.33507c.16215 0 .29712.0511.4035.15043.10404.0956.157.22026.157.36929 0 .15559-.053.28025-.157.37585-.10591.0994-.24088.15043-.4035.15043zm-1.40109 0h-.13684v-.92955h-.35523v-.11622h.84069v.11622h-.34867zm-.93639 0h-.70399V5.50637h.12981v.9227h.57414zm-3.06879 0h-.75184V5.50637h.72452v.11622h-.58782v.30087h.48528v.12981h-.48528v.37585h.61514zm-1.48315 0h-.745V5.50637h.72452v.11622h-.59466v.30087h.48528v.12981h-.48528v.37585h.61514zm-1.8112 0h-.12981v-.92955h-.35523v-.11622h.83385v.11622h-.34867zm-.92955 0h-.70394V5.50637h.12325v.9227h.58093Zm-2.94577 0h-.13685l-.13684-.28727h-.51264l-.12982.28727h-.13684l.47159-1.05256h.1092zm-.72447-.41006h.4035l-.20527-.45083zm-1.47631.41006h-.33508V5.50637h.33508c.1673 0 .30227.0511.4035.15043.10403.0956.15699.22026.15699.36929 0 .15559-.053.28025-.15699.37585-.10076.0994-.23573.15043-.4035.15043zm-1.03204 0h-.1434l-.12326-.28727h-.51259l-.12982.28727h-.1434l.47843-1.05256h.10264zm-.73131-.41006h.41006l-.20527-.45083zm-1.01839.41006h-.10254l-.62197-.81332v.81332h-.1367V5.50637h.10938l.62196.80648v-.80648h.12986zm-1.55149 0h-.1367l-.12986-.28727h-.5126l-.1367.28727h-.13671l.47844-1.05256h.10254zm-.73132-.41006h.41011l-.20503-.45083zm19.63624.28728h.19824c.13497 0 .24275-.0375.32148-.1092.0801-.0665.12279-.16589.12279-.29383 0-.12138-.0422-.22026-.12279-.29384-.0787-.0717-.18605-.10919-.32148-.10919h-.19824zm-14.77672 0h.19823c.13497 0 .24276-.0375.32102-.1092.0801-.0665.12325-.16589.12325-.29383 0-.12138-.0422-.22026-.12325-.29384-.0787-.0717-.18605-.10919-.32102-.10919h-.19823zm7.73012-1.07309h-.15044l.17762-.24604h.17761zM2.353576 6.69587h-.17087l-.007-.005c-.0598-.0651-.1196-.1523-.17771-.25962-.0598-.10592-.0888-.23948-.0888-.4035 0-.12653.0206-.24276.0615-.34867.0445-.10779.11276-.21182.20503-.30743l.007-.005h.17087l-.0412.0478c-.0547.06-.11449.14012-.17771.239-.0598.10076-.0889.22729-.0889.37585 0 .11951.0206.23057.0615.33508.0445.10404.1128.20011.20503.28728zm9.60968-1.33281h.17105l.005.005c.0581.0651.11809.1523.17761.25962.0581.10591.089.2376.089.39647 0 .13309-.0234.25119-.0684.35523-.0422.10779-.10778.21182-.19823.30743l-.005.005h-.17105l.0422-.0478c.053-.06.11106-.14012.17105-.239.0633-.10076.0956-.22729.0956-.38288 0-.1181-.0234-.22729-.0684-.32805-.0422-.10404-.10779-.20011-.19823-.28728zm0 0"></path></svg> 