<?xml version="1.0" encoding="UTF-8"?> <svg xmlns="http://www.w3.org/2000/svg" xml:space="preserve" viewBox="0 0 652 652"><path d="M510.8 429.8c2.2-4.5 4-9.2 5.2-14.2h-9c-1.1 4.4-2.7 8.5-4.7 12.2-2.2 4-4.9 7.5-8 10.4-3.2 2.9-6.9 5.3-11.2 7-4.2 1.7-9 2.5-14.1 2.5-8.2 0-15.1-1.6-20.5-4.7s-9.8-7.3-13.1-12.3c-3.2-5-5.5-10.8-6.9-17.2-1.4-6.3-2.1-12.8-2.1-19.4 0-7 .8-13.7 2.4-20 1.6-6.3 4.1-12 7.5-16.8 3.4-4.9 7.7-8.8 13-11.7 5.2-2.9 11.5-4.4 18.7-4.4 10.1 0 18.5 2.2 24.8 6.5 6.2 4.2 10.5 11.3 12.9 21h8.9c-1-5.3-2.6-10.1-4.9-14.2-2.4-4.4-5.6-8.2-9.4-11.2-3.8-3-8.2-5.3-13.2-6.8s-10.4-2.3-16.2-2.3c-7.6 0-14.7 1.1-21.2 3.3-6.4 2.1-12 5.6-16.7 10.4-4.7 4.8-8.5 11-11.2 18.6-2.7 7.6-4.1 17-4.1 28 0 8.2.9 16.1 2.7 23.3 1.8 7.2 4.7 13.6 8.6 19.1 3.9 5.4 9 9.8 15.2 13 6.2 3.2 13.7 4.8 22.4 4.8 7.6 0 14.3-1.1 19.9-3.2 5.6-2.1 10.4-5.1 14.3-8.8 4.4-3.7 7.6-8 10-12.9m-258.4-30.7c2.6.3 5.1 1 7.2 2 2.2 1 4.1 2.6 5.7 4.7 1.6 2 2.7 4.7 3.4 8 .5 2.4.8 5.4.9 9 .2 3.6.4 7.2.7 11 .3 3.8.6 7.4 1.1 10.8.4 2.9 1.1 5.3 2 7l9.4-.1c-.4-.5-.7-1-1-1.6-.6-1.1-1.1-2.7-1.5-4.6-.4-1.9-.7-4.3-1-7.3-.3-2.9-.5-6.7-.6-11.1-.1-2.9-.3-6-.6-9.3-.3-3.1-.9-6.1-1.8-8.9-.9-2.7-2.3-5.2-4.1-7.4-1.8-2.1-4.3-3.7-7.6-4.8l-2.9-1 2.8-1.3c6.5-2.9 11.2-6.5 14-10.6 2.8-4.1 4.2-9.8 4.2-16.8 0-10.3-3.3-17.9-9.7-22.4-6.6-4.6-16.2-7-28.8-7h-44.5v114.1l8.6.1v-53h35.9c2.9 0 5.6.2 8.2.5m-43.9-7.4v-47.3h36.2c3.7 0 7.4.3 10.8 1 3.5.7 6.7 1.9 9.5 3.6 2.8 1.7 5.1 4.1 6.7 7.1 1.7 3 2.5 6.8 2.5 11.3 0 4.3-.8 8-2.4 11.1-1.6 3.1-3.8 5.6-6.5 7.6s-5.9 3.4-9.6 4.3c-3.6.9-7.5 1.3-11.7 1.3h-35.5zm329.4-54.3v6.9h36.9v107.3h8.6V344.3h37v-6.9zm-221.7 0v114.2H393v-7h-68.2v-48.7h60.1v-7h-60.1v-44.6h66.6v-6.9zm-165.4 0h8.6v114.2h-8.6zM93.6 444.8c3.1-1.8 5.9-4.1 8.5-7 2.6-2.8 4.8-6 6.6-9.4 1.7-3.4 3.1-7.1 4.2-10.8 1.1-3.8 1.8-7.6 2.3-11.6.5-3.9.7-7.9.7-11.7 0-3.8-.3-8-.9-12.6-.6-4.5-1.6-9-3-13.4s-3.4-8.6-5.8-12.5c-2.4-3.9-5.5-7.2-9.2-9.9-2.6-1.9-5.3-3.4-8.1-4.6-2.8-1.2-5.7-2-8.6-2.6-3-.6-6-1-9.1-1.1-3.1-.2-6.3-.3-9.5-.3H23.1v114.2h38.6c3.8 0 7.7-.2 11.4-.6 3.7-.4 7.3-1.1 10.7-2.1 3.4-.8 6.7-2.2 9.8-4m-34.3-.2H31.6V344.3h27.6c4.8 0 9.7.3 14.6.8 4.9.6 9.2 1.8 12.7 3.7 4.2 2.2 7.8 5.1 10.4 8.5 2.6 3.4 4.8 7.1 6.3 11.2 1.5 4 2.6 8.3 3.2 12.8.5 4.4.8 8.8.8 13 0 4-.3 8.3-.9 12.6-.6 4.4-1.7 8.7-3.1 12.7-1.5 4-3.5 7.8-6.1 11.2-2.6 3.5-6 6.3-10 8.3-4.6 2.4-9.3 4-13.7 4.6-4.3.6-9.1.9-14.1.9m413.1-205c2.5-4 3.8-9.2 3.8-15.4 0-4.2-.6-8.2-1.7-12.1-1.1-3.7-3-7.1-5.7-10-2.7-2.9-6.5-5.2-11.2-6.8-4.8-1.7-10.9-2.5-18.3-2.5H398V307h8.6v-51.5h26.2c5.3 0 10.7-.5 15.9-1.4 5.2-.9 9.9-2.6 14-5 3.9-2.3 7.2-5.5 9.7-9.5m-14.3 4.1c-3 1.9-6.7 3.1-10.9 3.8-4.2.7-8.9 1-14.1 1h-26.5v-48.8h29.7c10.7 0 18.7 2 23.7 5.9 5.1 4 7.7 9.9 7.7 17.6 0 5.1-.8 9.4-2.5 12.6-1.7 3.4-4.1 6.1-7.1 7.9m-107.4 48.6c4.4-5.4 7.8-11.8 10.1-19 2.3-7.2 3.4-15.1 3.4-23.4 0-8.4-1.2-16.3-3.4-23.7-2.3-7.3-5.7-13.8-10.1-19.2-4.5-5.4-10.1-9.7-16.7-12.8-6.7-3.1-14.5-4.7-23.4-4.7-8.5 0-16.1 1.6-22.6 4.7s-12 7.5-16.4 12.9c-4.4 5.4-7.8 11.9-10.1 19.1-2.3 7.3-3.4 15.2-3.4 23.6 0 8.3 1.1 16.1 3.3 23.4 2.2 7.2 5.6 13.6 10 19s10 9.7 16.6 12.9c6.6 3.1 14.4 4.7 23.1 4.7 8.7 0 16.5-1.6 23.1-4.7 6.5-3.1 12.1-7.4 16.5-12.8m-19.5 6.2c-5.6 3-12.4 4.4-20.1 4.4-7.8 0-14.6-1.5-20.2-4.3-5.6-2.9-10.3-6.8-13.9-11.7-3.6-4.8-6.3-10.5-8-16.9-1.7-6.3-2.6-13.1-2.6-20.1 0-6.9.9-13.6 2.6-19.9 1.7-6.4 4.4-12.1 8-17 3.6-4.9 8.3-8.9 13.9-11.9s12.3-4.5 19.9-4.5c6.8 0 13.1 1.2 18.6 3.7 5.6 2.4 10.3 6 14.2 10.7 3.9 4.6 6.8 10.3 8.9 16.9 2 6.5 3.1 14 3.1 22.2 0 6.9-.9 13.6-2.6 19.9-1.7 6.4-4.4 12.1-8 16.9-3.6 4.8-8.2 8.7-13.8 11.6M215.5 192.8v50.1H144v-50.1h-8.6V307h8.6v-57.2h71.5V307h8.6V192.8zm-112.7 84.5c0-5.4-.9-9.9-2.7-13.5-1.8-3.5-4.2-6.5-7.2-8.7-3-2.3-6.5-4.1-10.4-5.5-4-1.4-8.2-2.6-12.4-3.6-4.3-1-8.6-2-12.7-2.9-4.2-.9-8.1-2.1-11.6-3.6-3.6-1.5-6.6-3.5-9.1-5.8-2.6-2.4-4.2-5.7-4.9-9.8-.6-3.2-.4-6.4.5-9.6.9-3.2 2.6-6.1 5-8.8 2.4-2.6 5.6-4.8 9.6-6.4 4-1.6 8.9-2.4 14.6-2.4 3.8 0 7.5.5 11 1.5 3.6 1 6.8 2.6 9.6 4.7 2.8 2.2 5.1 5 6.8 8.4 1.5 3.1 2.3 6.7 2.5 10.8h8.1c-.1-4.1-.9-8.1-2.3-11.8-1.6-4-3.9-7.6-7-10.7-3.1-3.1-7.1-5.5-11.8-7.3-4.8-1.8-10.4-2.7-16.8-2.7-6.3 0-12 .9-16.8 2.5-4.8 1.7-8.8 3.9-12 6.7-3.1 2.8-5.6 6-7.1 9.6-1.6 3.6-2.4 7.4-2.4 11.2 0 5.5 1 10.1 2.9 13.6 2 3.6 4.5 6.5 7.7 8.8 3.2 2.3 6.9 4.1 11 5.5 4.2 1.4 8.6 2.6 13 3.6 4.5 1 8.9 2.1 13.2 3.2 4.3 1.1 8.3 2.6 11.6 4.4 3.4 1.9 6.3 4.3 8.4 7.2 2.2 3 3.3 7 3.3 11.7 0 3.4-.6 6.6-1.8 9.7-1.2 3.1-3.1 5.8-5.6 8.1-2.5 2.3-5.7 4.2-9.7 5.5-3.9 1.3-8.5 2-13.8 2-4.5 0-8.8-.5-12.8-1.6-4-1-7.6-2.8-10.7-5.1-3.1-2.4-5.7-5.5-7.6-9.2-1.8-3.5-3-7.7-3.5-12.6h-8.4c.1 5.7 1.1 10.7 3 14.9 2 4.5 4.9 8.3 8.5 11.4 3.6 3.1 8 5.4 13 6.9s10.6 2.3 16.5 2.3c13.2 0 23.5-2.9 30.7-8.6 7-5.5 10.6-13.6 10.6-24" class="st0"></path><path d="M522 223.9c8.6 0 15.5-6.9 15.5-15.5s-7-15.5-15.5-15.5c-8.6 0-15.5 7-15.5 15.5s6.9 15.5 15.5 15.5m41.4 0c8.6 0 15.5-6.9 15.5-15.5s-7-15.5-15.5-15.5c-8.6 0-15.5 7-15.5 15.5s6.9 15.5 15.5 15.5m41.4 0c8.6 0 15.5-6.9 15.5-15.5s-6.9-15.5-15.5-15.5-15.5 7-15.5 15.5 6.9 15.5 15.5 15.5" class="st1"></path><path d="M522 265.3c8.6 0 15.5-7 15.5-15.5 0-8.6-7-15.5-15.5-15.5-8.6 0-15.5 7-15.5 15.5s6.9 15.5 15.5 15.5" class="st2"></path><path d="M563.4 265.3c8.6 0 15.5-7 15.5-15.5 0-8.6-7-15.5-15.5-15.5-8.6 0-15.5 7-15.5 15.5s6.9 15.5 15.5 15.5m41.4 0c8.6 0 15.5-7 15.5-15.5 0-8.6-6.9-15.5-15.5-15.5s-15.5 7-15.5 15.5 6.9 15.5 15.5 15.5M522 306.7c8.6 0 15.5-7 15.5-15.5 0-8.6-7-15.5-15.5-15.5-8.6 0-15.5 6.9-15.5 15.5 0 8.5 6.9 15.5 15.5 15.5" class="st1"></path><path d="M563.4 306.7c8.6 0 15.5-7 15.5-15.5 0-8.6-7-15.5-15.5-15.5-8.6 0-15.5 6.9-15.5 15.5 0 8.5 6.9 15.5 15.5 15.5" class="st2"></path><path d="M604.8 306.7c8.6 0 15.5-7 15.5-15.5 0-8.6-6.9-15.5-15.5-15.5s-15.5 6.9-15.5 15.5c0 8.5 6.9 15.5 15.5 15.5" class="st1"></path></svg> 